<?xml version="1.0" standalone="no"?>
<!DOCTYPE svg PUBLIC "-//W3C//DTD SVG 20010904//EN"
 "http://www.w3.org/TR/2001/REC-SVG-20010904/DTD/svg10.dtd">
<svg version="1.0" xmlns="http://www.w3.org/2000/svg"
 width="1280.000000pt" height="540.000000pt" viewBox="0 0 1280.000000 540.000000"
 preserveAspectRatio="xMidYMid meet">
<metadata>
Created by potrace 1.16, written by Peter Selinger 2001-2019
</metadata>
<g transform="translate(0.000000,540.000000) scale(0.100000,-0.100000)"
fill="#000000" stroke="none">
<path d="M0 2700 l0 -2700 6400 0 6400 0 0 2700 0 2700 -6400 0 -6400 0 0
-2700z m9380 875 c132 -25 228 -72 390 -193 151 -112 234 -213 265 -319 22
-74 17 -121 -16 -145 -38 -29 -178 -50 -283 -44 -123 7 -174 28 -265 109 -42
37 -104 82 -137 98 -52 26 -72 30 -135 30 -98 -1 -135 -11 -208 -56 -111 -67
-161 -164 -183 -352 -17 -145 0 -303 42 -390 64 -131 186 -229 312 -252 l74
-13 68 32 c37 17 84 46 103 63 38 35 86 124 79 144 -4 10 -40 13 -137 13
l-132 0 -42 43 c-37 37 -44 50 -50 100 -10 77 2 181 27 244 28 73 64 93 166
93 42 0 92 -4 110 -9 18 -6 121 -13 230 -16 175 -6 252 -13 343 -31 49 -9 59
-56 62 -264 2 -180 1 -187 -27 -270 -72 -211 -300 -457 -493 -530 -217 -83
-584 -76 -796 14 -133 57 -290 207 -385 367 -113 192 -142 306 -142 551 0 182
15 270 72 413 115 291 318 465 648 554 41 11 89 22 105 24 75 10 266 6 335 -8z
m2040 -10 c235 -39 378 -107 498 -235 35 -36 124 -179 134 -215 4 -11 15 -45
26 -75 27 -73 33 -125 19 -145 -11 -13 -41 -16 -217 -18 -241 -2 -241 -2 -343
98 -72 70 -133 104 -225 124 -63 13 -163 1 -227 -28 -98 -44 -174 -147 -210
-283 -14 -55 -16 -96 -13 -220 4 -138 7 -160 33 -228 55 -143 212 -260 361
-268 65 -4 77 -1 146 33 115 56 187 145 153 191 -12 17 -20 17 -106 7 -145
-18 -192 -6 -225 59 -14 26 -16 57 -12 188 3 134 6 161 24 190 l20 35 105 -1
c146 -1 499 -22 594 -35 102 -14 142 -31 156 -66 6 -15 13 -80 16 -143 12
-285 -79 -521 -278 -722 -80 -80 -143 -118 -259 -157 -221 -72 -543 -67 -750
12 -162 62 -340 239 -442 442 -46 90 -97 257 -109 355 -25 207 16 453 106 629
106 210 308 377 551 455 157 51 269 56 474 21z m-6065 -15 c22 -5 45 -17 52
-26 16 -22 17 -73 2 -110 -5 -16 -19 -73 -30 -129 -11 -55 -24 -113 -29 -130
-6 -16 -34 -131 -64 -255 -54 -225 -121 -486 -151 -590 -9 -30 -20 -73 -26
-95 -5 -21 -21 -75 -35 -120 -13 -44 -34 -111 -45 -150 -62 -212 -94 -267
-167 -282 -20 -4 -125 -8 -232 -8 -182 0 -198 2 -240 22 -25 13 -55 37 -67 55
-28 43 -62 144 -79 238 -7 41 -24 125 -37 185 -23 104 -49 244 -62 345 -8 56
-26 110 -38 110 -15 0 -37 -68 -67 -208 -41 -185 -87 -379 -105 -438 -8 -27
-23 -83 -35 -124 -31 -113 -48 -140 -100 -164 -41 -19 -63 -21 -255 -21 -178
0 -215 3 -241 17 -33 18 -89 98 -100 145 -4 14 -13 38 -20 52 -8 14 -14 36
-14 49 0 13 -5 32 -10 43 -6 10 -15 38 -20 61 -5 24 -18 75 -29 113 -37 135
-84 310 -97 365 -41 173 -126 511 -138 550 -7 25 -21 74 -29 110 -9 36 -26
106 -38 155 -27 114 -36 210 -19 220 6 4 120 7 253 8 320 0 313 4 357 -183 58
-247 79 -342 95 -430 17 -94 61 -299 71 -332 3 -10 11 -18 18 -18 17 0 33 62
67 260 24 142 58 299 83 385 8 28 20 68 26 90 46 158 57 188 78 208 23 21 31
22 247 22 292 0 276 10 338 -215 54 -193 89 -345 163 -720 27 -132 21 -149
113 300 49 237 56 268 81 355 6 22 24 87 40 144 32 115 47 138 94 144 65 8
403 6 441 -3z m1225 0 c120 -13 193 -38 326 -111 152 -84 198 -139 257 -304
19 -54 21 -81 21 -261 l0 -202 -43 -88 c-54 -113 -101 -174 -173 -224 -157
-111 -368 -170 -605 -170 -72 0 -144 -5 -159 -10 -24 -10 -26 -14 -21 -53 31
-231 37 -290 37 -344 0 -55 -3 -64 -24 -78 -45 -30 -165 -47 -333 -49 -153 -1
-163 0 -184 20 -33 34 -38 132 -41 771 -2 638 10 994 36 1056 9 20 17 38 19
39 1 1 79 4 172 8 288 11 608 11 715 0z m-4446 -9 c43 -5 64 -13 77 -29 21
-27 151 -418 228 -687 53 -185 157 -499 283 -850 104 -288 105 -302 35 -319
-50 -12 -399 -7 -452 6 -64 17 -83 46 -131 194 -20 62 -43 119 -52 126 -12 10
-74 12 -265 10 -309 -3 -293 6 -321 -162 -21 -120 -33 -156 -54 -165 -32 -13
-347 -23 -451 -15 -130 10 -137 16 -121 96 13 68 18 83 61 219 17 55 35 114
40 130 4 17 19 62 33 100 14 39 26 79 26 91 0 11 7 29 15 40 8 10 15 29 15 41
0 12 6 37 14 55 13 33 36 105 71 223 10 33 24 74 32 92 7 17 13 36 13 43 0 12
18 73 45 150 19 56 33 98 76 225 22 66 46 134 53 150 21 46 46 124 46 144 0
35 44 86 80 92 49 9 533 9 604 0z m5549 -1607 c-4 -38 12 -76 38 -93 28 -17
41 -3 46 51 5 50 6 52 30 44 16 -5 63 -99 63 -126 0 -5 -10 -18 -21 -29 -31
-29 -177 -28 -214 1 -39 30 -28 98 29 176 15 21 31 7 29 -24z"/>
<path d="M6254 3110 c-44 -14 -63 -67 -74 -199 -18 -222 9 -256 200 -256 88 0
113 4 150 23 64 31 90 85 90 189 0 108 -24 187 -66 220 -30 23 -44 25 -151 29
-65 2 -132 -1 -149 -6z"/>
<path d="M1813 2843 c-3 -10 -13 -34 -21 -53 -24 -59 -59 -176 -73 -246 -18
-89 -9 -96 116 -92 84 3 90 4 104 29 13 23 11 36 -24 155 -41 137 -75 224 -88
224 -4 0 -10 -8 -14 -17z"/>
</g>
</svg>
