<?xml version="1.0" standalone="no"?>
<!DOCTYPE svg PUBLIC "-//W3C//DTD SVG 20010904//EN"
 "http://www.w3.org/TR/2001/REC-SVG-20010904/DTD/svg10.dtd">
<svg version="1.0" xmlns="http://www.w3.org/2000/svg"
 width="1083.000000pt" height="1080.000000pt" viewBox="0 0 1083.000000 1080.000000"
 preserveAspectRatio="xMidYMid meet">
<metadata>
Created by potrace 1.16, written by Peter Selinger 2001-2019
</metadata>
<g transform="translate(0.000000,1080.000000) scale(0.100000,-0.100000)"
fill="#000000" stroke="none">
<path d="M0 5400 l0 -5400 5415 0 5415 0 0 5400 0 5400 -5415 0 -5415 0 0
-5400z m8055 816 c134 -24 194 -52 349 -160 160 -111 237 -199 275 -314 35
-103 27 -130 -46 -159 -39 -14 -76 -18 -193 -18 -168 0 -172 2 -285 99 -39 35
-97 75 -128 90 -52 26 -65 28 -145 24 -94 -4 -149 -25 -217 -81 -43 -35 -98
-141 -114 -218 -13 -62 -16 -261 -6 -335 23 -154 176 -316 326 -343 64 -12 69
-12 125 15 84 39 131 79 154 132 34 75 32 77 -102 77 -102 0 -120 3 -144 21
-60 44 -69 67 -68 172 1 206 63 276 219 251 33 -5 152 -13 265 -18 113 -5 238
-15 278 -22 105 -18 106 -20 110 -236 4 -166 3 -177 -23 -261 -35 -113 -112
-231 -223 -339 -140 -139 -236 -183 -459 -210 -124 -15 -143 -15 -268 0 -217
27 -348 89 -480 228 -192 204 -275 437 -262 739 13 327 157 588 403 736 198
119 446 168 659 130z m1975 -21 c244 -53 412 -171 505 -355 39 -78 77 -195 73
-231 -3 -34 -4 -34 -63 -41 -109 -13 -298 -12 -345 1 -32 9 -63 32 -115 81
-103 101 -206 138 -326 119 -90 -14 -137 -38 -191 -96 -94 -102 -123 -200
-116 -400 8 -206 47 -295 169 -384 69 -51 147 -79 216 -79 101 0 252 98 267
173 8 40 -15 61 -59 53 -16 -3 -65 -9 -107 -12 -88 -8 -116 3 -144 59 -14 26
-17 57 -15 164 3 217 19 237 181 222 47 -4 173 -13 280 -19 199 -11 294 -22
342 -42 38 -14 48 -57 48 -200 0 -225 -52 -388 -176 -549 -157 -205 -334 -283
-644 -283 -226 0 -364 32 -480 109 -164 110 -290 282 -364 496 -61 180 -69
353 -25 554 41 186 114 320 241 441 118 114 294 205 458 238 50 10 316 -3 390
-19z m-5710 -6 c40 -9 51 -15 56 -35 11 -42 -9 -147 -85 -454 -17 -69 -50
-199 -72 -290 -23 -91 -47 -185 -54 -210 -7 -25 -20 -72 -29 -105 -9 -33 -32
-116 -52 -185 -20 -69 -42 -145 -49 -170 -43 -152 -79 -246 -104 -271 -41 -41
-89 -49 -276 -48 -136 0 -179 4 -215 17 -77 30 -114 105 -159 327 -7 33 -21
98 -30 145 -10 47 -26 132 -36 190 -31 189 -36 210 -50 210 -22 0 -33 -36 -85
-275 -53 -247 -126 -513 -152 -554 -7 -12 -37 -30 -66 -41 -45 -17 -77 -20
-225 -19 -199 1 -230 8 -270 65 -28 40 -62 122 -77 184 -5 19 -16 60 -24 90
-65 239 -157 585 -171 650 -15 63 -25 104 -61 245 -98 378 -118 478 -104 505
10 19 21 20 241 20 242 0 275 -5 298 -48 17 -31 88 -336 141 -602 42 -216 55
-259 71 -243 10 10 30 96 64 278 21 114 72 336 91 395 8 25 24 78 35 118 14
48 29 78 43 87 29 20 187 29 329 20 138 -8 166 -23 184 -97 6 -24 25 -92 43
-153 18 -60 40 -148 50 -195 17 -82 68 -320 95 -445 l13 -60 16 37 c9 21 16
48 16 62 0 14 4 35 9 48 5 13 27 114 50 223 39 193 51 243 105 442 30 111 40
131 69 137 12 3 31 7 42 9 43 10 337 6 385 -4z m1125 1 c133 -13 181 -27 305
-93 149 -80 198 -133 252 -274 21 -54 23 -74 23 -263 l-1 -205 -41 -80 c-49
-96 -107 -164 -180 -211 -29 -18 -55 -34 -58 -34 -2 0 -28 -11 -57 -24 -127
-58 -271 -86 -440 -86 -145 0 -165 -8 -154 -64 26 -127 43 -336 30 -370 -13
-34 -187 -66 -361 -66 -107 0 -138 11 -153 54 -20 52 -34 882 -21 1216 14 365
18 414 36 456 8 19 15 35 17 35 6 3 407 15 548 17 80 1 195 -3 255 -8z m-4074
-19 c15 -7 34 -30 43 -50 17 -40 96 -282 150 -461 112 -371 189 -602 305 -925
40 -110 75 -221 78 -247 5 -45 4 -48 -21 -58 -36 -13 -400 -13 -449 1 -47 13
-77 58 -108 160 -24 81 -46 130 -63 141 -6 4 -112 8 -236 8 -288 0 -274 8
-305 -172 -19 -110 -32 -133 -79 -142 -62 -12 -448 -9 -480 3 -28 11 -28 13
-22 64 4 28 13 75 22 102 22 75 74 242 99 315 26 77 41 125 90 285 20 66 40
129 44 140 5 11 16 45 25 75 9 30 28 91 42 135 14 44 30 94 35 110 4 17 30 93
58 170 68 194 89 256 95 285 9 45 31 63 82 71 85 13 565 4 595 -10z m5116
-1492 c-9 -14 -5 -24 17 -53 37 -49 52 -46 66 14 12 51 16 55 37 42 14 -9 43
-85 43 -113 0 -32 -39 -47 -117 -45 -74 1 -105 16 -118 57 -6 18 27 91 55 121
19 20 33 2 17 -23z"/>
<path d="M5180 5782 c-50 -14 -60 -27 -75 -97 -17 -83 -19 -219 -4 -264 7 -19
24 -38 42 -48 66 -34 242 -25 297 15 44 33 64 88 63 170 -1 41 -9 98 -18 127
-22 77 -54 95 -182 100 -54 2 -109 1 -123 -3z"/>
<path d="M1023 5523 c-3 -10 -14 -37 -24 -60 -22 -48 -69 -227 -69 -261 0 -30
33 -42 113 -42 86 0 111 18 105 75 -6 47 -75 273 -91 293 -13 17 -27 15 -34
-5z"/>
</g>
</svg>
