<?xml version="1.0" standalone="no"?>
<!DOCTYPE svg PUBLIC "-//W3C//DTD SVG 20010904//EN"
 "http://www.w3.org/TR/2001/REC-SVG-20010904/DTD/svg10.dtd">
<svg version="1.0" xmlns="http://www.w3.org/2000/svg"
 width="1024.000000pt" height="1024.000000pt" viewBox="0 0 1024.000000 1024.000000"
 preserveAspectRatio="xMidYMid meet">

<g transform="translate(0.000000,1024.000000) scale(0.100000,-0.100000)"
fill="#000000" stroke="none">
<path d="M0 5120 l0 -5120 5120 0 5120 0 0 5120 0 5120 -5120 0 -5120 0 0
-5120z m4260 3579 c4 -6 25 -15 46 -19 22 -4 82 -20 134 -34 52 -15 114 -31
138 -36 24 -5 64 -16 90 -24 26 -9 83 -25 127 -36 110 -29 167 -44 255 -68 41
-12 111 -30 155 -42 44 -11 103 -27 130 -35 28 -8 86 -24 130 -35 44 -12 109
-29 145 -40 36 -10 94 -26 130 -35 36 -9 94 -25 130 -35 104 -28 179 -48 265
-70 44 -12 96 -26 115 -32 41 -11 163 -44 234 -61 27 -7 51 -17 53 -22 2 -6
-21 -35 -50 -66 -28 -31 -97 -106 -152 -165 -104 -114 -206 -221 -392 -414
-61 -63 -124 -128 -138 -145 -87 -95 -238 -258 -365 -390 -107 -113 -308 -326
-460 -489 -46 -50 -136 -145 -200 -211 -63 -66 -171 -181 -240 -255 -240 -261
-350 -371 -360 -365 -12 7 -14 3127 -2 3139 10 11 74 -1 82 -15z m-1655 -691
c3 -18 4 -1216 3 -2663 l-3 -2630 -28 -3 c-25 -3 -85 11 -232 54 -27 8 -68 18
-90 24 -22 5 -83 21 -135 36 -52 14 -111 30 -130 35 -49 12 -146 37 -205 54
-211 59 -284 78 -455 121 -36 9 -71 18 -77 20 -20 5 -15 58 7 84 11 13 20 33
20 45 0 12 9 51 19 86 10 35 29 100 40 144 12 44 26 95 33 114 6 19 16 60 24
90 7 31 19 81 27 111 9 30 25 91 37 135 12 44 30 112 40 150 25 94 54 204 80
295 11 41 27 100 34 130 8 30 23 89 34 130 19 69 39 142 78 290 16 58 28 102
64 235 12 44 29 112 39 151 10 39 21 75 24 82 4 6 11 30 16 54 8 40 35 143 77
293 9 33 22 85 29 116 6 31 15 61 20 68 4 7 13 38 20 69 16 69 31 126 55 212
10 36 25 92 34 125 19 74 52 199 76 285 10 36 25 94 35 130 9 36 25 94 35 130
17 60 39 140 75 280 25 97 56 213 75 280 10 36 26 94 35 130 10 36 26 94 36
129 10 35 19 71 19 79 0 9 9 43 19 76 25 81 49 172 56 219 7 47 32 50 40 5z
m5623 -372 c26 -8 83 -24 127 -36 44 -12 103 -28 130 -35 28 -8 61 -17 75 -20
14 -3 48 -12 75 -20 28 -8 88 -24 134 -37 46 -12 86 -28 88 -36 3 -7 -4 -46
-15 -85 -30 -108 -88 -321 -112 -417 -12 -47 -28 -103 -36 -125 -7 -22 -16
-58 -20 -80 -4 -22 -11 -48 -16 -57 -4 -10 -13 -39 -18 -65 -6 -27 -22 -88
-36 -138 -14 -49 -31 -115 -38 -145 -8 -30 -17 -63 -21 -72 -3 -9 -13 -43 -20
-75 -7 -32 -22 -92 -33 -133 -12 -41 -30 -109 -41 -150 -11 -41 -27 -102 -36
-135 -38 -135 -56 -203 -70 -260 -8 -33 -24 -91 -34 -130 -11 -38 -29 -104
-40 -145 -34 -129 -62 -233 -78 -290 -8 -30 -21 -80 -28 -110 -8 -30 -26 -95
-40 -145 -13 -49 -29 -110 -35 -135 -5 -25 -16 -63 -24 -85 -8 -22 -15 -49
-16 -60 0 -10 -6 -37 -14 -60 -7 -22 -23 -78 -35 -125 -12 -47 -28 -107 -36
-135 -8 -27 -24 -86 -35 -130 -36 -135 -61 -228 -76 -280 -8 -27 -18 -68 -24
-90 -5 -22 -21 -80 -35 -130 -14 -49 -28 -108 -32 -130 -11 -77 -35 -79 -83
-8 -17 24 -30 46 -30 47 0 4 -85 130 -131 196 -9 14 -57 86 -106 160 -49 74
-115 172 -146 218 -31 45 -57 84 -57 86 0 2 -25 40 -55 85 -30 45 -80 117
-110 162 -30 45 -55 82 -55 84 0 2 -26 40 -57 86 -31 46 -80 119 -110 163 -29
43 -53 79 -53 81 0 2 -26 40 -57 86 -31 46 -79 118 -106 159 -27 41 -79 119
-116 173 -69 103 -78 117 -125 188 -50 77 -141 212 -179 266 -20 29 -37 61
-37 70 0 24 1989 2013 2013 2013 10 0 39 -6 65 -14z m-3177 -3218 c6 -13 71
-113 144 -223 72 -110 203 -308 290 -440 173 -262 423 -641 701 -1060 98 -148
181 -274 182 -278 2 -4 69 -105 148 -223 79 -119 144 -217 144 -219 0 -1 61
-93 135 -205 74 -111 135 -206 135 -210 0 -20 -24 -20 -83 -2 -34 11 -89 27
-122 36 -230 59 -363 95 -415 111 -25 7 -63 17 -85 21 -22 3 -48 11 -57 16
-10 4 -39 13 -65 18 -27 6 -88 22 -138 36 -49 14 -115 31 -145 39 -62 16 -116
30 -210 55 -36 10 -94 25 -130 35 -36 9 -94 25 -130 35 -67 19 -183 50 -280
75 -160 41 -221 58 -280 76 -36 10 -73 19 -82 19 -10 0 -35 6 -55 14 -21 7
-76 23 -123 35 -284 74 -342 91 -352 106 -4 5 -8 309 -8 674 l0 664 392 386
c215 212 401 396 412 409 11 12 30 22 42 22 14 0 28 -9 35 -22z"/>
</g>
</svg>
